<?xml version="1.0" encoding="UTF-8" standalone="no"?>
<svg
   xmlns:dc="http://purl.org/dc/elements/1.1/"
   xmlns:cc="http://creativecommons.org/ns#"
   xmlns:rdf="http://www.w3.org/1999/02/22-rdf-syntax-ns#"
   xmlns:svg="http://www.w3.org/2000/svg"
   xmlns="http://www.w3.org/2000/svg"
   xmlns:sodipodi="http://sodipodi.sourceforge.net/DTD/sodipodi-0.dtd"
   xmlns:inkscape="http://www.inkscape.org/namespaces/inkscape"
   version="1.1"
   width="4.6986933"
   height="4.0800176"
   id="svg19"
   viewBox="0 0 4.6986932 4.0800176"
   sodipodi:docname="Icon.svg"
   inkscape:export-filename="D:\reinaldo\Documents\GitHub\Auxiliares\franz-plugins\encontact\Icon.png"
   inkscape:export-xdpi="20.43125"
   inkscape:export-ydpi="20.43125"
   inkscape:version="0.92.1 r15371">
  <metadata
     id="metadata25">
    <rdf:RDF>
      <cc:Work
         rdf:about="">
        <dc:format>image/svg+xml</dc:format>
        <dc:type
           rdf:resource="http://purl.org/dc/dcmitype/StillImage" />
        <dc:title></dc:title>
      </cc:Work>
    </rdf:RDF>
  </metadata>
  <defs
     id="defs23" />
  <sodipodi:namedview
     pagecolor="#ffffff"
     bordercolor="#666666"
     borderopacity="1"
     objecttolerance="10"
     gridtolerance="10"
     guidetolerance="10"
     inkscape:pageopacity="0"
     inkscape:pageshadow="2"
     inkscape:window-width="1304"
     inkscape:window-height="745"
     id="namedview21"
     showgrid="true"
     inkscape:zoom="45.254834"
     inkscape:cx="3.8410496"
     inkscape:cy="0.50190465"
     inkscape:window-x="54"
     inkscape:window-y="3"
     inkscape:window-maximized="1"
     inkscape:current-layer="svg19">
    <inkscape:grid
       type="xygrid"
       id="grid3713" />
  </sodipodi:namedview>
  <g
     id="Layer1001"
     inkscape:export-xdpi="96"
     inkscape:export-ydpi="96"
     transform="translate(-204.3833,-172.72098)">
    <path
       inkscape:connector-curvature="0"
       id="path2"
       style="fill:#f9761b;fill-rule:evenodd"
       d="m 206.8978,172.8924 c 0.542,-0.006 1.0251,0.2532 1.3261,0.6568 0.2154,0.2788 -0.1461,0.62 -0.4303,0.2669 -0.2593,-0.3168 -0.6549,-0.5173 -1.0961,-0.5124 -0.7706,0.009 -1.3884,0.6402 -1.3798,1.4109 8e-4,0.0726 0.007,0.144 0.0186,0.2135 -0.0317,-0.1239 -0.0493,-0.2535 -0.0508,-0.3871 -0.01,-0.9005 0.7118,-1.6386 1.6123,-1.6486 z" />
    <path
       inkscape:connector-curvature="0"
       id="path4"
       style="fill:#f9761b;fill-rule:evenodd"
       d="m 206.9116,176.2083 c -0.542,0.006 -1.0251,-0.2532 -1.3261,-0.6568 -0.2154,-0.2788 0.1461,-0.62 0.4303,-0.2669 0.097,0.1185 0.2131,0.2207 0.3435,0.302 0.3788,0.2549 0.8708,0.3295 1.3312,0.1576 0.3165,-0.1183 0.5678,-0.3344 0.7327,-0.6011 -0.2275,0.6155 -0.8163,1.0575 -1.5116,1.0652 z" />
    <path
       inkscape:connector-curvature="0"
       id="path6"
       style="fill:#01458e;fill-rule:evenodd"
       d="m 204.4038,174.2435 c 0.0814,-0.603 0.3939,-1.1178 0.8363,-1.4676 0.2469,-0.1955 0.5058,0.1724 0.2008,0.4538 -0.2616,0.2877 -0.4417,0.6548 -0.4976,1.0693 -0.1466,1.087 0.6157,2.087 1.7027,2.2337 1.0189,0.1374 1.9614,-0.5238 2.1962,-1.5024 -0.2488,1.1355 -1.3321,1.9083 -2.5045,1.7502 -1.2346,-0.1666 -2.1004,-1.3024 -1.9339,-2.537 z" />
    <path
       inkscape:connector-curvature="0"
       id="path8"
       style="fill:#01458e;fill-rule:evenodd"
       d="m 208.6956,174.7566 a 0.1968,0.1968 0 0 1 0.2424,-0.1368 0.1968,0.1968 0 1 1 -0.2424,0.1368 z" />
    <path
       inkscape:connector-curvature="0"
       id="path10"
       style="fill:#01458e;fill-rule:evenodd"
       d="m 205.4477,174.9892 c 0.5335,-1.2444 2.5867,-0.4719 2.8972,-1.1786 0.0131,1.2557 -2.1571,0.1442 -2.8972,1.1786 z" />
  </g>
</svg>
